<?xml version="1.0" standalone="no"?><!DOCTYPE svg PUBLIC "-//W3C//DTD SVG 1.1//EN" "http://www.w3.org/Graphics/SVG/1.1/DTD/svg11.dtd"><svg t="1772371088820" class="icon" viewBox="0 0 1077 1024" version="1.1" xmlns="http://www.w3.org/2000/svg" p-id="16183" xmlns:xlink="http://www.w3.org/1999/xlink" width="210.3515625" height="200"><path d="M871.014806 872.391561a66.238159 66.238159 0 0 1-21.540864-3.590144l-345.371866-113.987076a40.119861 40.119861 0 0 1 25.131009-76.290563l332.985868 110.037918L993.079707 89.650387 99.133818 536.264317l288.827095 95.497834a40.119861 40.119861 0 1 1-25.131008 76.200809L47.525496 603.669273A68.571753 68.571753 0 0 1 38.460382 476.757678L977.821594 7.52584a68.392246 68.392246 0 0 1 72.161897 6.552013 68.302492 68.302492 0 0 1 26.297806 67.584463l-137.682027 734.633243a69.110275 69.110275 0 0 1-67.674217 56.096002z" p-id="16184"></path><path d="M516.667581 1023.985397a40.209614 40.209614 0 0 1-40.209615-40.119861V716.669059c0-8.885607 2.872115-17.501953 8.347085-24.41298L997.567387 25.297053a40.030107 40.030107 0 1 1 63.635305 48.915714l-504.415251 656.09884v253.553929c0 22.16914-17.950721 40.119861-40.11986 40.119861z" p-id="16185"></path></svg>